<?xml version="1.0" encoding="UTF-8"?>
<svg id="Layer_1" xmlns="http://www.w3.org/2000/svg" version="1.1" xmlns:xlink="http://www.w3.org/1999/xlink" viewBox="0 0 540 540">
  <!-- Generator: Adobe Illustrator 29.3.1, SVG Export Plug-In . SVG Version: 2.1.0 Build 151)  -->
  <defs>
    <style>
      .st0 {
        fill: url(#linear-gradient1);
      }

      .st1 {
        fill: #231f20;
      }

      .st2 {
        fill: url(#linear-gradient);
      }
    </style>
    <linearGradient id="linear-gradient" x1="67.01" y1="242.92" x2="129.85" y2="305.77" gradientUnits="userSpaceOnUse">
      <stop offset="0" stop-color="#0ed977"/>
      <stop offset=".14" stop-color="#0dd776"/>
      <stop offset=".27" stop-color="#0cd373"/>
      <stop offset=".4" stop-color="#09c76c"/>
      <stop offset=".53" stop-color="#05b45f"/>
      <stop offset=".53" stop-color="#05b45f"/>
      <stop offset=".68" stop-color="#05af5d"/>
      <stop offset=".83" stop-color="#06a357"/>
      <stop offset=".99" stop-color="#078f4e"/>
      <stop offset="1" stop-color="#088d4d"/>
    </linearGradient>
    <linearGradient id="linear-gradient1" x1="144.91" y1="239.37" x2="204.34" y2="298.81" gradientUnits="userSpaceOnUse">
      <stop offset="0" stop-color="#0ed977"/>
      <stop offset=".18" stop-color="#0ed675"/>
      <stop offset=".35" stop-color="#0dcf71"/>
      <stop offset=".58" stop-color="#0cbd67"/>
      <stop offset=".85" stop-color="#09a057"/>
      <stop offset="1" stop-color="#088d4d"/>
    </linearGradient>
  </defs>
  <g>
    <path class="st2" d="M149.7,257.23c0,.75-.07,1.47-.21,2.18,0,.04-.01.08-.03.12l-.28,1.09s-.01.03-.01.04l-6.3,25.21c-1.83,7.3-5.83,13.51-12.02,18.62-6.19,5.1-12.8,7.65-19.79,7.65s-12.93-3.04-17.12-9.13c-7.89,6.09-15.06,9.13-21.49,9.13-8.13,0-13.9-2.95-17.29-8.86-2.67-4.66-2.88-11.38-.62-20.16l9.57-37.31h9.59c6.31,0,11.43,5.12,11.43,11.43,0,.79-.08,1.55-.24,2.29h0s-.28,1.1-.28,1.1c0,.01-.01.03-.01.04l-5.14,20.17c-.71,2.74-.91,4.64-.62,5.71.29,1.07,1.18,1.59,2.66,1.59,2.74,0,4.72-2.43,5.96-7.3l8.92-35.04h9.61c6.3,0,11.42,5.12,11.42,11.42,0,.91-.11,1.78-.3,2.62-.04.16-.08.32-.12.47l-5.18,20.53c-.7,2.74-.88,4.64-.57,5.71s1.21,1.59,2.68,1.59c2.7,0,4.66-2.43,5.88-7.3l8.82-35.04h9.65c6.31,0,11.43,5.12,11.43,11.42Z"/>
    <path class="st0" d="M217.04,277.39c-2.33,9.52-7.6,17.54-15.85,24.07-8.25,6.52-17.22,9.78-26.92,9.78-4.87,0-9.35-1.07-13.45-3.2-4.1-2.13-7.21-5-9.31-8.61-3.64-6.26-4.23-14.37-1.75-24.33l5.56-22.3,7.93-31.77c.66-.08,1.33-.12,2.01-.12,9.67,0,17.49,7.83,17.49,17.49,0,.53-.02,1.06-.07,1.58s-.14.98-.26,1.46l-.73,2.99s-.01.03-.03.05l-7.35,29.72c-2.14,8.65-.11,12.98,6.1,12.98,2.64,0,5.12-.91,7.4-2.71,2.29-1.8,3.75-3.98,4.38-6.55.64-2.66.33-4.89-.96-6.69s-3.2-2.71-5.71-2.71c-1.78,0-4.01.79-6.69,2.35l6.65-26.88c2.92-.25,5.1-.38,6.58-.38,9.13,0,16.14,3.3,21.03,9.9,4.91,6.62,6.22,14.57,3.95,23.88Z"/>
  </g>
  <g>
    <path class="st1" d="M280.04,269.58c0,.31-.03.6-.09.89,0,.02,0,.03-.01.05l-.11.45s0,.01,0,.02l-2.57,10.3c-.75,2.98-2.38,5.52-4.91,7.61-2.53,2.09-5.23,3.13-8.09,3.13s-5.28-1.24-7-3.73c-3.23,2.49-6.15,3.73-8.78,3.73-3.32,0-5.68-1.2-7.07-3.62-1.09-1.9-1.18-4.65-.25-8.24l3.91-15.25h3.92c2.58,0,4.67,2.09,4.67,4.67,0,.32-.03.63-.1.94h0s-.11.45-.11.45c0,0,0,.01,0,.02l-2.1,8.25c-.29,1.12-.37,1.9-.25,2.33.12.44.48.65,1.09.65,1.12,0,1.93-.99,2.44-2.98l3.64-14.32h3.93c2.57,0,4.67,2.09,4.67,4.67,0,.37-.04.73-.12,1.07-.02.06-.03.13-.05.19l-2.12,8.39c-.28,1.12-.36,1.9-.23,2.33s.49.65,1.1.65c1.1,0,1.9-.99,2.4-2.98l3.61-14.32h3.95c2.58,0,4.67,2.09,4.67,4.67Z"/>
    <path class="st1" d="M377.95,278.15c-.95,3.9-3.12,7.19-6.5,9.87-3.38,2.67-7.06,4.01-11.04,4.01-2,0-3.83-.44-5.52-1.31s-2.96-2.05-3.82-3.53c-1.49-2.57-1.74-5.89-.72-9.98l2.28-9.15,3.25-13.03c.27-.03.54-.05.83-.05,3.96,0,7.17,3.21,7.17,7.17,0,.22,0,.44-.03.65s-.06.4-.11.6l-.3,1.22s0,.01-.01.02l-3.01,12.19c-.88,3.55-.04,5.32,2.5,5.32,1.08,0,2.1-.37,3.04-1.11.94-.74,1.54-1.63,1.8-2.69.26-1.09.13-2.01-.39-2.74s-1.31-1.11-2.34-1.11c-.73,0-1.64.32-2.74.97l2.73-11.02c1.2-.1,2.09-.16,2.7-.16,3.74,0,6.62,1.35,8.62,4.06,2.01,2.71,2.55,5.97,1.62,9.79Z"/>
    <path class="st1" d="M289.6,254.44c-.97-.94-2.13-1.41-3.46-1.41s-2.49.47-3.46,1.41c-.97.94-1.46,2.03-1.46,3.32,0,1.38.45,2.49,1.38,3.37.92.88,2.1,1.31,3.54,1.31s2.61-.44,3.54-1.31c.92-.88,1.38-1.99,1.38-3.37,0-1.28-.49-2.38-1.46-3.32Z"/>
    <path class="st1" d="M291.02,270.55v20.4h-9.83v-26.22h4.98c2.43,0,4.45,1.75,4.85,4.07v1.75Z"/>
    <path class="st1" d="M318.31,277.11v13.84h-9.85v-14.81c0-1.5-.61-2.25-1.86-2.25s-1.83.75-1.83,2.25v10.49c-.3,2.44-2.39,4.32-4.9,4.32h-4.95v-14.62c0-3.41,1.14-6.29,3.4-8.64,2.27-2.33,5.02-3.51,8.31-3.51,3.76,0,6.76,1.36,9.02,4.07,1.77,2.13,2.66,5.07,2.66,8.86Z"/>
    <path class="st1" d="M348.12,255v21.85c0,4.01-1.05,7.28-3.16,9.8-1.21,1.46-2.74,2.61-4.6,3.47-1.88.86-3.79,1.28-5.74,1.28-3.91,0-7.22-1.31-9.89-3.94s-4.02-5.84-4.02-9.67,1.33-6.89,3.99-9.6c2.68-2.69,5.82-4.04,9.47-4.04.58,0,1.46.05,2.63.16v10.83c-.81-.64-1.61-.95-2.43-.95-1.02,0-1.88.38-2.61,1.13-.72.74-1.08,1.64-1.08,2.69s.38,1.88,1.13,2.61c.75.72,1.66,1.1,2.71,1.1,2.52,0,3.79-1.75,3.79-5.24v-16.56c0-2.71,2.19-4.91,4.92-4.91h4.92Z"/>
    <path class="st1" d="M393.12,264.18c3.72,0,6.9,1.34,9.56,4.01,2.66,2.67,3.98,5.88,3.98,9.61s-1.35,7.01-4.04,9.68c-2.69,2.66-5.94,4-9.74,4s-7.05-1.34-9.75-4.01c-2.7-2.67-4.05-5.89-4.05-9.66s1.35-7.07,4.05-9.69c2.7-2.62,6.03-3.93,9.99-3.93ZM392.86,273.88c-1.05,0-1.95.38-2.68,1.14-.74.76-1.11,1.7-1.11,2.8s.37,2.01,1.12,2.79c.74.77,1.63,1.16,2.67,1.16s1.95-.39,2.69-1.16c.74-.77,1.12-1.7,1.12-2.79s-.37-2.04-1.1-2.8c-.74-.76-1.64-1.14-2.71-1.14Z"/>
    <path class="st1" d="M421.32,264.18c3.72,0,6.9,1.34,9.56,4.01,2.66,2.67,3.98,5.88,3.98,9.61s-1.35,7.01-4.04,9.68c-2.69,2.66-5.94,4-9.74,4s-7.05-1.34-9.75-4.01c-2.7-2.67-4.05-5.89-4.05-9.66s1.35-7.07,4.05-9.69c2.7-2.62,6.03-3.93,9.99-3.93ZM421.05,273.88c-1.05,0-1.95.38-2.68,1.14-.74.76-1.11,1.7-1.11,2.8s.37,2.01,1.12,2.79c.74.77,1.63,1.16,2.67,1.16s1.95-.39,2.69-1.16c.74-.77,1.12-1.7,1.12-2.79s-.37-2.04-1.1-2.8c-.74-.76-1.64-1.14-2.71-1.14Z"/>
    <path class="st1" d="M457.16,274.27l2.76-5.48c.94-1.87-.42-4.07-2.51-4.07h-5.66l-4.48,9.09,6.15,17.12h10.89l-7.15-16.67Z"/>
    <path class="st1" d="M446.91,259.75v31.2h-9.83v-35.89h4.91c2.65,0,4.79,2.08,4.92,4.7Z"/>
    <path class="st1" d="M487.01,265.1v10.36h-1.67c-1.38,0-2.33.25-2.85.77s-.85,1.53-.99,3.07c-.45,5.06-2.43,8.64-5.89,10.72-1.85,1.1-4.46,1.63-7.84,1.63h-3.24v-10.41h2.32c1.58,0,2.71-.33,3.38-.99.67-.66,1.06-1.8,1.17-3.46.14-2.68.39-4.56.75-5.65.36-1.08,1.1-2.16,2.19-3.24,1.93-1.86,4.6-2.8,8.01-2.8h4.65Z"/>
  </g>
</svg>