<?xml version="1.0" encoding="UTF-8"?>
<svg id="Layer_1" xmlns="http://www.w3.org/2000/svg" version="1.1" xmlns:xlink="http://www.w3.org/1999/xlink" viewBox="0 0 540 540">
  <!-- Generator: Adobe Illustrator 29.3.1, SVG Export Plug-In . SVG Version: 2.1.0 Build 151)  -->
  <defs>
    <style>
      .st0 {
        fill: url(#linear-gradient1);
      }

      .st1 {
        fill: #231f20;
      }

      .st2 {
        fill: url(#linear-gradient);
      }
    </style>
    <linearGradient id="linear-gradient" x1="178.02" y1="175.96" x2="262.35" y2="260.29" gradientUnits="userSpaceOnUse">
      <stop offset="0" stop-color="#0ed977"/>
      <stop offset=".14" stop-color="#0dd776"/>
      <stop offset=".27" stop-color="#0cd373"/>
      <stop offset=".4" stop-color="#09c76c"/>
      <stop offset=".53" stop-color="#05b45f"/>
      <stop offset=".53" stop-color="#05b45f"/>
      <stop offset=".68" stop-color="#05af5d"/>
      <stop offset=".83" stop-color="#06a357"/>
      <stop offset=".99" stop-color="#078f4e"/>
      <stop offset="1" stop-color="#088d4d"/>
    </linearGradient>
    <linearGradient id="linear-gradient1" x1="282.55" y1="171.2" x2="362.3" y2="250.95" gradientUnits="userSpaceOnUse">
      <stop offset="0" stop-color="#0ed977"/>
      <stop offset=".18" stop-color="#0ed675"/>
      <stop offset=".35" stop-color="#0dcf71"/>
      <stop offset=".58" stop-color="#0cbd67"/>
      <stop offset=".85" stop-color="#09a057"/>
      <stop offset="1" stop-color="#088d4d"/>
    </linearGradient>
  </defs>
  <g>
    <path class="st2" d="M288.99,195.17c0,1.01-.09,1.98-.28,2.93,0,.05-.02.11-.04.16l-.37,1.46s-.02.04-.02.05l-8.45,33.83c-2.45,9.79-7.82,18.12-16.13,24.99-8.31,6.85-17.17,10.27-26.56,10.27s-17.35-4.08-22.98-12.25c-10.59,8.17-20.21,12.25-28.84,12.25-10.91,0-18.65-3.95-23.21-11.89-3.58-6.25-3.86-15.26-.83-27.05l12.85-50.06h12.86c8.47,0,15.34,6.86,15.34,15.34,0,1.06-.11,2.08-.32,3.07v.02l-.37,1.46s-.02.04-.02.05l-6.9,27.07c-.95,3.67-1.22,6.23-.83,7.66.39,1.43,1.59,2.14,3.56,2.14,3.67,0,6.34-3.26,7.99-9.79l11.96-47.01h12.9c8.45,0,15.32,6.86,15.32,15.32,0,1.22-.14,2.38-.41,3.51-.05.21-.11.42-.16.64l-6.95,27.55c-.94,3.67-1.18,6.23-.76,7.66s1.62,2.14,3.6,2.14c3.62,0,6.25-3.26,7.89-9.79l11.84-47.01h12.95c8.47,0,15.34,6.86,15.34,15.32Z"/>
    <path class="st0" d="M379.34,222.22c-3.12,12.78-10.2,23.54-21.26,32.29-11.06,8.75-23.1,13.13-36.12,13.13-6.53,0-12.55-1.43-18.05-4.29s-9.67-6.71-12.49-11.56c-4.89-8.4-5.68-19.29-2.35-32.65l7.46-29.93,10.64-42.63c.88-.11,1.78-.16,2.7-.16,12.97,0,23.47,10.5,23.47,23.47,0,.72-.03,1.42-.1,2.12s-.19,1.31-.35,1.95l-.98,4.01s-.02.04-.04.07l-9.86,39.88c-2.88,11.61-.14,17.42,8.19,17.42,3.55,0,6.86-1.22,9.94-3.64,3.07-2.42,5.03-5.35,5.88-8.79.86-3.56.44-6.56-1.29-8.98s-4.29-3.64-7.66-3.64c-2.38,0-5.38,1.06-8.98,3.16l8.93-36.07c3.92-.34,6.85-.51,8.82-.51,12.25,0,21.65,4.43,28.22,13.29,6.58,8.88,8.35,19.55,5.29,32.05Z"/>
  </g>
  <path class="st1" d="M376.83,293.15c0,.09,0,.19-.02.28v-.56c.02.09.02.19.02.28Z"/>
  <g>
    <path class="st1" d="M137.47,333.38c0,.49-.04.95-.14,1.41,0,.03,0,.05-.02.08l-.18.71s0,.02,0,.03l-4.08,16.31c-1.18,4.72-3.77,8.74-7.78,12.05-4.01,3.3-8.28,4.95-12.81,4.95s-8.36-1.97-11.08-5.91c-5.11,3.94-9.74,5.91-13.9,5.91-5.26,0-8.99-1.91-11.19-5.74-1.73-3.01-1.86-7.36-.4-13.05l6.2-24.14h6.2c4.08,0,7.39,3.31,7.39,7.39,0,.51-.05,1-.15,1.48h0s-.18.71-.18.71c0,0,0,.02,0,.03l-3.33,13.05c-.46,1.77-.59,3-.4,3.69.19.69.77,1.03,1.72,1.03,1.77,0,3.05-1.57,3.85-4.72l5.77-22.67h6.22c4.08,0,7.39,3.31,7.39,7.39,0,.59-.07,1.15-.2,1.69-.03.1-.05.2-.08.31l-3.35,13.28c-.45,1.77-.57,3-.37,3.69s.78,1.03,1.74,1.03c1.74,0,3.01-1.57,3.8-4.72l5.71-22.67h6.25c4.08,0,7.39,3.31,7.39,7.39Z"/>
    <path class="st1" d="M292.47,346.94c-1.51,6.18-4.93,11.39-10.29,15.62-5.35,4.23-11.17,6.35-17.47,6.35-3.16,0-6.07-.69-8.73-2.07-2.66-1.38-4.68-3.24-6.04-5.59-2.36-4.06-2.75-9.33-1.14-15.79l3.61-14.48,5.15-20.62c.43-.05.86-.08,1.31-.08,6.27,0,11.35,5.08,11.35,11.35,0,.35-.02.69-.05,1.03s-.09.63-.17.95l-.47,1.94s0,.02-.02.03l-4.77,19.29c-1.39,5.62-.07,8.43,3.96,8.43,1.72,0,3.32-.59,4.81-1.76,1.49-1.17,2.43-2.59,2.84-4.25.42-1.72.21-3.18-.62-4.35s-2.07-1.76-3.7-1.76c-1.15,0-2.6.51-4.35,1.53l4.32-17.45c1.9-.16,3.31-.25,4.27-.25,5.92,0,10.47,2.14,13.65,6.43,3.18,4.29,4.04,9.46,2.56,15.5Z"/>
    <path class="st1" d="M152.6,309.41c-1.54-1.49-3.37-2.23-5.48-2.23s-3.94.74-5.48,2.23c-1.54,1.49-2.3,3.22-2.3,5.25,0,2.18.72,3.94,2.18,5.33,1.46,1.39,3.32,2.08,5.6,2.08s4.14-.69,5.6-2.08c1.46-1.39,2.18-3.15,2.18-5.33,0-2.03-.77-3.77-2.3-5.25Z"/>
    <path class="st1" d="M154.85,334.91v32.29h-15.56v-41.51h7.88c3.84,0,7.04,2.78,7.68,6.44v2.78Z"/>
    <path class="st1" d="M198.04,345.29v21.9h-15.59v-23.44c0-2.38-.97-3.57-2.95-3.57s-2.9,1.19-2.9,3.57v16.6c-.47,3.87-3.79,6.84-7.76,6.84h-7.83v-23.14c0-5.4,1.81-9.96,5.38-13.68,3.59-3.69,7.95-5.55,13.16-5.55,5.95,0,10.7,2.16,14.27,6.44,2.8,3.37,4.21,8.03,4.21,14.03Z"/>
    <path class="st1" d="M245.25,310.3v34.59c0,6.34-1.66,11.52-5.01,15.51-1.91,2.3-4.34,4.14-7.29,5.5-2.97,1.36-6,2.03-9.09,2.03-6.19,0-11.42-2.08-15.66-6.24-4.24-4.16-6.37-9.24-6.37-15.31s2.11-10.9,6.32-15.19c4.24-4.26,9.22-6.39,14.99-6.39.92,0,2.3.07,4.16.25v17.15c-1.29-1.02-2.55-1.51-3.84-1.51-1.61,0-2.97.59-4.14,1.78-1.14,1.16-1.71,2.6-1.71,4.26s.59,2.97,1.78,4.14c1.19,1.14,2.63,1.73,4.29,1.73,3.99,0,6-2.78,6-8.3v-26.22c0-4.29,3.47-7.78,7.78-7.78h7.78Z"/>
    <path class="st1" d="M316.48,324.83c5.88,0,10.93,2.12,15.13,6.35,4.2,4.23,6.31,9.3,6.31,15.21s-2.13,11.1-6.39,15.32c-4.26,4.22-9.4,6.33-15.42,6.33s-11.17-2.11-15.44-6.35c-4.27-4.23-6.41-9.33-6.41-15.3s2.13-11.19,6.41-15.34c4.27-4.15,9.55-6.22,15.82-6.22ZM316.06,340.18c-1.66,0-3.08.6-4.24,1.81-1.17,1.21-1.75,2.68-1.75,4.43s.59,3.19,1.77,4.41c1.18,1.22,2.59,1.83,4.23,1.83s3.09-.61,4.27-1.83c1.18-1.22,1.77-2.69,1.77-4.41s-.58-3.23-1.75-4.43c-1.17-1.21-2.6-1.81-4.29-1.81Z"/>
    <path class="st1" d="M361.11,324.83c5.88,0,10.93,2.12,15.13,6.35,4.2,4.23,6.31,9.3,6.31,15.21s-2.13,11.1-6.39,15.32c-4.26,4.22-9.4,6.33-15.42,6.33s-11.17-2.11-15.44-6.35c-4.27-4.23-6.41-9.33-6.41-15.3s2.13-11.19,6.41-15.34c4.27-4.15,9.55-6.22,15.82-6.22ZM360.7,340.18c-1.66,0-3.08.6-4.24,1.81-1.17,1.21-1.75,2.68-1.75,4.43s.59,3.19,1.77,4.41c1.18,1.22,2.59,1.83,4.23,1.83s3.09-.61,4.27-1.83c1.18-1.22,1.77-2.69,1.77-4.41s-.58-3.23-1.75-4.43c-1.17-1.21-2.6-1.81-4.29-1.81Z"/>
    <path class="st1" d="M417.86,340.81l4.36-8.67c1.49-2.96-.66-6.45-3.97-6.45h-8.96l-7.09,14.4,9.74,27.11h17.25l-11.32-26.39Z"/>
    <path class="st1" d="M401.63,317.81v49.39h-15.56v-56.82h7.78c4.19,0,7.58,3.3,7.78,7.43Z"/>
    <path class="st1" d="M465.11,326.29v16.4h-2.65c-2.18,0-3.69.4-4.51,1.21s-1.34,2.43-1.56,4.86c-.72,8-3.84,13.68-9.32,16.97-2.92,1.73-7.06,2.58-12.41,2.58h-5.13v-16.48h3.67c2.5,0,4.29-.52,5.35-1.56,1.07-1.04,1.68-2.85,1.86-5.48.22-4.24.62-7.21,1.19-8.95.57-1.71,1.73-3.42,3.47-5.13,3.05-2.95,7.29-4.44,12.69-4.44h7.36Z"/>
  </g>
</svg>