<?xml version="1.0" encoding="UTF-8"?>
<svg id="Layer_1" xmlns="http://www.w3.org/2000/svg" version="1.1" xmlns:xlink="http://www.w3.org/1999/xlink" viewBox="0 0 540 540">
  <!-- Generator: Adobe Illustrator 29.3.1, SVG Export Plug-In . SVG Version: 2.1.0 Build 151)  -->
  <defs>
    <style>
      .st0 {
        fill: url(#linear-gradient1);
      }

      .st1 {
        fill: url(#linear-gradient);
      }
    </style>
    <linearGradient id="linear-gradient" x1="129.04" y1="209.63" x2="258.28" y2="338.87" gradientUnits="userSpaceOnUse">
      <stop offset="0" stop-color="#0ed977"/>
      <stop offset=".14" stop-color="#0dd776"/>
      <stop offset=".27" stop-color="#0cd373"/>
      <stop offset=".4" stop-color="#09c76c"/>
      <stop offset=".53" stop-color="#05b45f"/>
      <stop offset=".53" stop-color="#05b45f"/>
      <stop offset=".68" stop-color="#05af5d"/>
      <stop offset=".83" stop-color="#06a357"/>
      <stop offset=".99" stop-color="#078f4e"/>
      <stop offset="1" stop-color="#088d4d"/>
    </linearGradient>
    <linearGradient id="linear-gradient1" x1="289.24" y1="202.32" x2="411.46" y2="324.55" gradientUnits="userSpaceOnUse">
      <stop offset="0" stop-color="#0ed977"/>
      <stop offset=".18" stop-color="#0ed675"/>
      <stop offset=".35" stop-color="#0dcf71"/>
      <stop offset=".58" stop-color="#0cbd67"/>
      <stop offset=".85" stop-color="#09a057"/>
      <stop offset="1" stop-color="#088d4d"/>
    </linearGradient>
  </defs>
  <path class="st1" d="M299.1,239.06c0,1.54-.14,3.03-.43,4.49,0,.08-.03.16-.05.24l-.57,2.24s-.03.05-.03.08l-12.95,51.85c-3.76,15.01-11.98,27.78-24.72,38.3-12.74,10.49-26.31,15.74-40.7,15.74s-26.59-6.25-35.21-18.77c-16.23,12.52-30.97,18.77-44.19,18.77-16.71,0-28.59-6.06-35.56-18.23-5.49-9.57-5.92-23.39-1.27-41.46l19.69-76.73h19.72c12.98,0,23.5,10.52,23.5,23.5,0,1.62-.16,3.19-.49,4.71v.03l-.57,2.24s-.03.05-.03.08l-10.57,41.49c-1.46,5.63-1.87,9.55-1.27,11.74.6,2.19,2.43,3.27,5.46,3.27,5.63,0,9.71-5,12.25-15.01l18.34-72.05h19.77c12.95,0,23.48,10.52,23.48,23.48,0,1.87-.22,3.65-.62,5.38-.08.32-.16.65-.24.97l-10.66,42.22c-1.43,5.63-1.81,9.55-1.16,11.74s2.49,3.27,5.52,3.27c5.54,0,9.57-5,12.09-15.01l18.15-72.05h19.85c12.98,0,23.5,10.52,23.5,23.48Z"/>
  <path class="st0" d="M437.57,280.52c-4.79,19.58-15.63,36.08-32.59,49.49-16.96,13.41-35.4,20.12-55.36,20.12-10.01,0-19.23-2.19-27.67-6.57-8.44-4.38-14.82-10.28-19.15-17.71-7.49-12.87-8.71-29.56-3.6-50.03l11.44-45.87,16.31-65.34c1.35-.16,2.73-.24,4.14-.24,19.88,0,35.97,16.09,35.97,35.97,0,1.1-.05,2.18-.15,3.25s-.3,2.01-.54,3l-1.5,6.14s-.03.05-.05.11l-15.12,61.12c-4.41,17.8-.22,26.69,12.55,26.69,5.44,0,10.52-1.87,15.23-5.57,4.71-3.71,7.71-8.19,9.01-13.47,1.33-5.46.68-10.06-1.97-13.77s-6.57-5.57-11.74-5.57c-3.65,0-8.25,1.62-13.77,4.84l13.68-55.28c6-.51,10.49-.78,13.52-.78,18.77,0,33.18,6.79,43.24,20.36,10.09,13.6,12.79,29.97,8.11,49.11Z"/>
</svg>